<?xml version="1.0" encoding="utf-8"?>
<!-- Generator: Adobe Illustrator 16.0.0, SVG Export Plug-In . SVG Version: 6.00 Build 0)  -->
<!DOCTYPE svg PUBLIC "-//W3C//DTD SVG 1.1//EN" "http://www.w3.org/Graphics/SVG/1.1/DTD/svg11.dtd">
<svg version="1.1" id="Layer_1" xmlns="http://www.w3.org/2000/svg" xmlns:xlink="http://www.w3.org/1999/xlink" x="0px" y="0px"
	 width="120px" height="120px" viewBox="0 0 120 120" enable-background="new 0 0 120 120" xml:space="preserve">
<g>
	<g>
		
			<radialGradient id="SVGID_1_" cx="-480.8276" cy="100.5225" r="31.7722" gradientTransform="matrix(0.9995 0 0 -0.9817 538.5903 139.627)" gradientUnits="userSpaceOnUse">
			<stop  offset="0.0056" style="stop-color:#FFE0BE"/>
			<stop  offset="0.2312" style="stop-color:#FFDCB5"/>
			<stop  offset="0.599" style="stop-color:#FED19D"/>
			<stop  offset="1" style="stop-color:#FCC17B"/>
		</radialGradient>
		<path fill="url(#SVGID_1_)" d="M57.452,11.168c7.837,0,14.464,2.602,19.879,7.807c5.416,5.204,8.124,11.603,8.124,19.199
			c0,7.649-2.695,14.079-8.084,19.296c-5.389,5.219-12.027,7.829-19.919,7.829c-7.835,0-14.456-2.617-19.858-7.846
			c-5.403-5.23-8.104-11.656-8.104-19.277c0-7.597,2.702-13.995,8.104-19.2C42.997,13.77,49.617,11.168,57.452,11.168z"/>
	</g>
	
		<radialGradient id="SVGID_2_" cx="-476.7856" cy="128.748" r="26.6854" gradientTransform="matrix(0.9995 0 0 -0.9666 538.5903 164.9185)" gradientUnits="userSpaceOnUse">
		<stop  offset="0.0056" style="stop-color:#FFE0BE"/>
		<stop  offset="0.2312" style="stop-color:#FFDCB5"/>
		<stop  offset="0.599" style="stop-color:#FED19D"/>
		<stop  offset="1" style="stop-color:#FCC17B"/>
	</radialGradient>
	<ellipse fill="url(#SVGID_2_)" cx="85.102" cy="38.174" rx="5.596" ry="5.409"/>
	
		<radialGradient id="SVGID_3_" cx="-482.6216" cy="133.5352" r="31.3711" gradientTransform="matrix(0.9995 0 0 -0.9666 538.5903 164.9185)" gradientUnits="userSpaceOnUse">
		<stop  offset="0.0056" style="stop-color:#FFE0BE"/>
		<stop  offset="0.2312" style="stop-color:#FFDCB5"/>
		<stop  offset="0.599" style="stop-color:#FED19D"/>
		<stop  offset="1" style="stop-color:#FCC17B"/>
	</radialGradient>
	<ellipse fill="url(#SVGID_3_)" cx="30.474" cy="38.174" rx="6.579" ry="6.36"/>
	
		<linearGradient id="SVGID_4_" gradientUnits="userSpaceOnUse" x1="-487.2412" y1="177.9941" x2="-476.4017" y2="133.0403" gradientTransform="matrix(1 0 0 -1 539.04 177.3398)">
		<stop  offset="0" style="stop-color:#DDD165"/>
		<stop  offset="0.2436" style="stop-color:#E1C659"/>
		<stop  offset="0.6835" style="stop-color:#EDA939"/>
		<stop  offset="1" style="stop-color:#F6911E"/>
	</linearGradient>
	<path fill="url(#SVGID_4_)" d="M30.474,40.459c0,0,0.905-4.333,3.135-7.867c0,0,1.624,1.521,4.247,1.761
		c0,0-1.295-3.287-1.474-5.114c0,0,5.55,5.188,17.133,6.055c0,0-3.755-2.684-4.695-6.469c0,0,5.052,1.819,8.219,4.088l-2.094-3.342
		c0,0,3.292,0.845,7.188,1.319c0.243,0.031-2.889-2.221-2.889-2.221s5.725,2.673,11.291,2.199L66.417,28.4
		c0,0,9.142,2.878,11.063,4.396l-4.077-4.508c0,0,7.641,4.377,9.179,9.139l1.05,1.811c0,0,1.564-2.134,1.368-5.089
		c0,0-0.353-0.263,1.259-1.386c1.844-1.283,4.439,2.731,4.439,2.731s0-5.091-1.971-6.777c-1.258-1.075-0.59-2.702,0.516-1.985
		c1.143,0.741,2.151,3.542,2.151,3.542s0.271-3.019-0.695-5.602c-0.637-1.702-2.777-3.209-2.463-3.565
		c1.271-1.433,3.388,1.177,3.388,1.177s0.614-2.056-2.467-4.614c-1.271-1.056-4.031-2.162-4.47-3.296
		c-0.4-1.034,1.839-1.416,5.797,0.395c0,0-1.747-3.467-4.224-5.374c-2.475-1.907-6.006-3.185-6.755-2.93
		c-0.749,0.257-2.985-1.4,1.841-2.451c0,0-16.508-7.964-26.871-1.462c0,0-2.996-2.553-9.183-1.639c0,0,4.738,1.272,2.984,3.101
		c0,0-6.889-3.252-11.277,0.21c0,0,3.4-0.458,4.476,0.125c1.705,0.929,2.212,2.334-1.511,1.899
		c-10.078-1.183-12.177,8.795-12.177,8.795s1.988-1.868,3.587-2.212c3.554-0.763,4.901,0.797,1.524,1.864
		c-9.004,2.845-9.004,10.483-9.004,10.483s3.85-3.144,5.145-2.531c0.91,0.43-2.68,2.632-3.447,4.856
		c-1.052,3.055-0.701,5.257-0.701,5.257s0.76-0.757,2.211-1.335c1.105-0.443,0.902,0.853,0.192,4.83c0,0,2.029-2.664,2.196-1.4
		C29.657,36.123,30.474,40.459,30.474,40.459z"/>
	<path fill="#3B2314" d="M44.993,37.279c-1.247-0.25-2.748,0.351-4.451,2.321c0,0,5.506-3.029,8.489,1.361
		C49.031,40.961,49.049,38.089,44.993,37.279z"/>
	<path fill="#E4B322" d="M46.438,34.737c-1.558-0.413-4.86,0.379-5.897,1.197c0,0,4.333-2.547,8.77,1.359
		C49.311,37.293,51.507,36.076,46.438,34.737z"/>
	<path fill="#E4B322" d="M68.254,34.737c1.558-0.413,4.861,0.379,5.897,1.197c0,0-4.333-2.547-8.771,1.359
		C65.379,37.293,63.183,36.076,68.254,34.737z"/>
	<g>
		<path fill="#3B2314" d="M42.166,41.876c0.695,1.299,2.374,1.76,3.755,1.027c1.384-0.733,1.942-2.382,1.25-3.687
			c-0.694-1.302-2.374-1.763-3.754-1.029C42.035,38.926,41.476,40.574,42.166,41.876z"/>
		<path fill="#FFFFFF" d="M44.787,40.076c0.278,0.521,0.948,0.702,1.501,0.409c0.552-0.293,0.776-0.953,0.5-1.474
			c-0.276-0.521-0.948-0.705-1.501-0.411C44.734,38.896,44.511,39.555,44.787,40.076z"/>
	</g>
	<path fill="#3B2314" d="M67.535,41.876c0.695,1.299,2.373,1.76,3.754,1.027c1.385-0.733,1.942-2.382,1.25-3.687
		c-0.691-1.302-2.372-1.763-3.752-1.029C67.402,38.926,66.844,40.574,67.535,41.876z"/>
	<path fill="#FFFFFF" d="M70.155,40.076c0.28,0.521,0.949,0.702,1.502,0.409c0.554-0.293,0.779-0.953,0.501-1.474
		c-0.277-0.521-0.95-0.705-1.503-0.411C70.102,38.896,69.879,39.555,70.155,40.076z"/>
	<path fill="#3B2314" d="M69.698,37.553c1.247-0.249,2.747,0.351,4.452,2.322c0,0-5.506-3.029-8.491,1.361
		C65.659,41.235,65.642,38.363,69.698,37.553z"/>
	<path fill="#ECA580" d="M59.751,46.792c0,0-1.992,0.668-3.126,0.625c-1.132-0.045-2.957-0.83-2.957-0.83s1.819,1.816,3.083,1.828
		C58.11,48.427,58.904,47.433,59.751,46.792z"/>
	<path fill="#ECA580" d="M59.321,60.138c0,0-1.284-0.759-2.025-0.76c-0.742-0.004-1.957,0.723-1.957,0.723s1.14-1.071,1.969-1.045
		C58.198,59.085,58.751,59.721,59.321,60.138z"/>
	<g>
		<g>
			
				<linearGradient id="SVGID_5_" gradientUnits="userSpaceOnUse" x1="-496.0239" y1="147.8135" x2="-496.0239" y2="127.0084" gradientTransform="matrix(1 0 0 -1 539.04 177.3398)">
				<stop  offset="0" style="stop-color:#F58220"/>
				<stop  offset="1" style="stop-color:#EF4123"/>
			</linearGradient>
			<path fill="url(#SVGID_5_)" d="M43.017,50.537c-5.99,0-10.864-4.713-10.864-10.506c0-5.793,4.874-10.504,10.864-10.504
				c5.989,0,10.862,4.712,10.862,10.504C53.88,45.824,49.006,50.537,43.017,50.537z M43.017,31.053c-5.12,0-9.284,4.028-9.284,8.978
				s4.164,8.978,9.284,8.978c5.119,0,9.284-4.027,9.284-8.978S48.137,31.053,43.017,31.053z"/>
		</g>
		<g>
			
				<linearGradient id="SVGID_6_" gradientUnits="userSpaceOnUse" x1="-468.3911" y1="147.8193" x2="-468.3911" y2="127.0176" gradientTransform="matrix(1 0 0 -1 539.04 177.3398)">
				<stop  offset="0" style="stop-color:#F58220"/>
				<stop  offset="1" style="stop-color:#EF4123"/>
			</linearGradient>
			<path fill="url(#SVGID_6_)" d="M70.648,51.302c-5.99,0-10.862-4.713-10.862-10.505s4.872-10.505,10.862-10.505
				s10.863,4.713,10.863,10.505S76.639,51.302,70.648,51.302z M70.648,31.817c-5.119,0-9.283,4.027-9.283,8.978
				c0,4.95,4.164,8.979,9.283,8.979c5.121,0,9.283-4.029,9.283-8.979C79.932,35.844,75.767,31.817,70.648,31.817z"/>
		</g>
		<g>
			
				<linearGradient id="SVGID_7_" gradientUnits="userSpaceOnUse" x1="-482.3975" y1="147.8105" x2="-482.3975" y2="127.0241" gradientTransform="matrix(1 0 0 -1 539.04 177.3398)">
				<stop  offset="0" style="stop-color:#F58220"/>
				<stop  offset="1" style="stop-color:#EF4123"/>
			</linearGradient>
			<path fill="url(#SVGID_7_)" d="M60.171,41.503c-4.223-1.635-6.661-0.139-6.76-0.074l-0.884-1.267
				c0.127-0.085,3.184-2.033,8.231-0.079L60.171,41.503z"/>
		</g>
	</g>
	<g>
		<path fill="#EB9465" d="M58.498,57.142c-4.114,0-6.31-2.702-6.338-2.736c-0.132-0.166-0.099-0.404,0.073-0.534
			c0.174-0.13,0.422-0.097,0.555,0.068c0.118,0.152,2.992,3.646,8.514,2.008c0.211-0.066,0.43,0.051,0.493,0.253
			c0.064,0.201-0.054,0.414-0.26,0.476C60.427,57.007,59.416,57.142,58.498,57.142z"/>
	</g>
	<g>
		
			<linearGradient id="SVGID_8_" gradientUnits="userSpaceOnUse" x1="-475.126" y1="96.7969" x2="-451.8877" y2="96.7969" gradientTransform="matrix(1 0 0 -1 539.04 177.3398)">
			<stop  offset="0" style="stop-color:#F58220"/>
			<stop  offset="0.0247" style="stop-color:#F57F20"/>
			<stop  offset="0.2613" style="stop-color:#F26421"/>
			<stop  offset="0.5017" style="stop-color:#F05022"/>
			<stop  offset="0.746" style="stop-color:#EF4523"/>
			<stop  offset="1" style="stop-color:#EF4123"/>
		</linearGradient>
		<path fill="url(#SVGID_8_)" d="M69.077,68.595v7.14c0,0.394,0.233,0.754,0.603,0.923c0.145,0.067,0.301,0.1,0.455,0.1
			c0.239,0,0.472-0.077,0.663-0.225c1.642-1.275,3.609-1.894,6.016-1.894c2.716,0,4.894,0.853,6.651,2.605
			c1.769,1.766,2.627,3.889,2.627,6.488c0,2.738-0.86,4.891-2.631,6.578c-1.772,1.693-4.055,2.516-6.978,2.516
			c-2.585,0-4.71-0.832-6.489-2.543c-0.202-0.195-0.473-0.297-0.747-0.297c-0.137,0-0.276,0.025-0.407,0.078
			c-0.393,0.158-0.651,0.533-0.651,0.945c0,0.5-0.249,1.035-0.741,1.596l-2.026-0.947c0.163-0.348,0.281-0.715,0.357-1.096
			c0.138-0.694,0.205-1.712,0.205-3.11v-17.99L69.077,68.595 M75.988,90.775c2.088,0,3.78-0.705,5.024-2.094
			c1.208-1.346,1.821-3.037,1.821-5.029c0-1.935-0.639-3.59-1.902-4.922c-1.283-1.354-2.967-2.039-5.006-2.039
			c-2.083,0-3.764,0.672-4.996,2c-1.201,1.294-1.811,3.004-1.811,5.081c0,1.987,0.625,3.663,1.855,4.978
			C72.232,90.095,73.918,90.775,75.988,90.775 M70.137,67.232l-5.21,1.459v18.761c0,1.32-0.062,2.292-0.185,2.921
			c-0.125,0.626-0.4,1.199-0.828,1.719l3.764,1.761c1.045-0.945,1.569-1.893,1.569-2.839c1.971,1.894,4.382,2.839,7.236,2.839
			c3.183,0,5.759-0.937,7.722-2.812c1.964-1.871,2.947-4.308,2.947-7.307c0-2.852-0.977-5.252-2.926-7.197
			c-1.951-1.945-4.422-2.92-7.411-2.92c-2.634,0-4.857,0.707-6.679,2.119V67.232L70.137,67.232z M75.988,89.75
			c-1.766,0-3.174-0.562-4.228-1.688c-1.056-1.126-1.584-2.558-1.584-4.289c0-1.827,0.515-3.294,1.54-4.399
			c1.028-1.107,2.43-1.66,4.208-1.66c1.735,0,3.146,0.569,4.227,1.71c1.081,1.138,1.622,2.547,1.622,4.228
			c0,1.747-0.52,3.2-1.561,4.359C79.174,89.17,77.764,89.75,75.988,89.75L75.988,89.75z"/>
	</g>
	<g>
		
			<linearGradient id="SVGID_9_" gradientUnits="userSpaceOnUse" x1="-529.6226" y1="104.1045" x2="-529.6226" y2="82.9799" gradientTransform="matrix(1 0 0 -1 539.04 177.3398)">
			<stop  offset="0" style="stop-color:#F58220"/>
			<stop  offset="0.0247" style="stop-color:#F57F20"/>
			<stop  offset="0.2613" style="stop-color:#F26421"/>
			<stop  offset="0.5017" style="stop-color:#F05022"/>
			<stop  offset="0.746" style="stop-color:#EF4523"/>
			<stop  offset="1" style="stop-color:#EF4123"/>
		</linearGradient>
		<path fill="url(#SVGID_9_)" d="M18.834,93.31h-6.555l-7.112-7.857v7.857H0V64.557l5.169-1.418v17.815l6.389-6.758h6.015
			l-8.518,8.717L18.834,93.31z"/>
		
			<linearGradient id="SVGID_10_" gradientUnits="userSpaceOnUse" x1="-510.5923" y1="104.1064" x2="-510.5923" y2="82.9826" gradientTransform="matrix(1 0 0 -1 539.04 177.3398)">
			<stop  offset="0" style="stop-color:#F58220"/>
			<stop  offset="0.0247" style="stop-color:#F57F20"/>
			<stop  offset="0.2613" style="stop-color:#F26421"/>
			<stop  offset="0.5017" style="stop-color:#F05022"/>
			<stop  offset="0.746" style="stop-color:#EF4523"/>
			<stop  offset="1" style="stop-color:#EF4123"/>
		</linearGradient>
		<path fill="url(#SVGID_10_)" d="M34.834,73.814l-0.971,4.762c-0.331-0.108-0.806-0.162-1.426-0.162
			c-1.462,0-2.688,0.543-3.68,1.631c-0.994,1.088-1.488,2.49-1.488,4.209v9.056h-5.208V75.016l4.92-1.4v3.439
			c0.952-1.147,1.925-2.006,2.925-2.58c1-0.573,2.022-0.861,3.07-0.861C33.787,73.615,34.408,73.682,34.834,73.814z"/>
		
			<linearGradient id="SVGID_11_" gradientUnits="userSpaceOnUse" x1="-491.3979" y1="104.1045" x2="-491.3979" y2="82.9824" gradientTransform="matrix(1 0 0 -1 539.04 177.3398)">
			<stop  offset="0" style="stop-color:#F58220"/>
			<stop  offset="0.0247" style="stop-color:#F57F20"/>
			<stop  offset="0.2613" style="stop-color:#F26421"/>
			<stop  offset="0.5017" style="stop-color:#F05022"/>
			<stop  offset="0.746" style="stop-color:#EF4523"/>
			<stop  offset="1" style="stop-color:#EF4123"/>
		</linearGradient>
		<path fill="url(#SVGID_11_)" d="M59.229,92.131l-3.68,1.72c-1.048-0.946-1.571-1.894-1.571-2.839
			c-1.943,1.893-4.459,2.839-7.546,2.839c-3.032,0-5.52-0.946-7.462-2.839c-1.943-1.893-2.915-4.317-2.915-7.277
			c0-2.787,1.019-5.168,3.06-7.149c2.042-1.981,4.536-2.97,7.483-2.97c3.087,0,5.521,0.901,7.298,2.697l4.259-2.116v13.256
			c0,1.532,0.09,2.597,0.27,3.189C58.602,91.234,58.869,91.73,59.229,92.131z M47.239,89.75c1.751,0,3.157-0.562,4.217-1.688
			c1.061-1.126,1.592-2.558,1.592-4.289c0-1.841-0.509-3.31-1.529-4.409c-1.02-1.1-2.418-1.65-4.196-1.65
			c-1.805,0-3.236,0.557-4.29,1.67c-1.055,1.111-1.583,2.535-1.583,4.268c0,1.747,0.52,3.2,1.561,4.359
			C44.051,89.17,45.46,89.75,47.239,89.75z"/>
		
			<linearGradient id="SVGID_12_" gradientUnits="userSpaceOnUse" x1="-446.0059" y1="104.1035" x2="-446.0059" y2="82.9798" gradientTransform="matrix(1 0 0 -1 539.04 177.3398)">
			<stop  offset="0" style="stop-color:#F58220"/>
			<stop  offset="0.0247" style="stop-color:#F57F20"/>
			<stop  offset="0.2613" style="stop-color:#F26421"/>
			<stop  offset="0.5017" style="stop-color:#F05022"/>
			<stop  offset="0.746" style="stop-color:#EF4523"/>
			<stop  offset="1" style="stop-color:#EF4123"/>
		</linearGradient>
		<path fill="url(#SVGID_12_)" d="M95.64,93.31h-5.21V64.598l5.21-1.461V93.31z"/>
		
			<linearGradient id="SVGID_13_" gradientUnits="userSpaceOnUse" x1="-429.479" y1="104.1064" x2="-429.479" y2="82.9823" gradientTransform="matrix(1 0 0 -1 539.04 177.3398)">
			<stop  offset="0" style="stop-color:#F58220"/>
			<stop  offset="0.0247" style="stop-color:#F57F20"/>
			<stop  offset="0.2613" style="stop-color:#F26421"/>
			<stop  offset="0.5017" style="stop-color:#F05022"/>
			<stop  offset="0.746" style="stop-color:#EF4523"/>
			<stop  offset="1" style="stop-color:#EF4123"/>
		</linearGradient>
		<path fill="url(#SVGID_13_)" d="M120,82.873l-15.318,2.779c0.331,1.427,1.02,2.492,2.069,3.199
			c1.045,0.705,2.444,1.059,4.196,1.059c1.83,0,3.679-0.492,5.541-1.479l2.17,3.66c-2.591,1.172-5.347,1.759-8.27,1.759
			c-3.391,0-6.115-0.933-8.176-2.8s-3.09-4.225-3.09-7.078c0-3.039,1.025-5.525,3.081-7.459c2.054-1.935,4.618-2.9,7.69-2.9
			c2.853,0,5.207,0.825,7.061,2.469C118.805,77.732,119.822,79.994,120,82.873z M114.501,80.214
			c-0.441-0.88-1.046-1.542-1.818-1.987c-0.771-0.447-1.717-0.673-2.831-0.673c-1.379,0-2.551,0.4-3.516,1.2
			c-0.966,0.8-1.559,1.872-1.779,3.219L114.501,80.214z"/>
	</g>
	<g>
		
			<linearGradient id="SVGID_14_" gradientUnits="userSpaceOnUse" x1="-463.5391" y1="104.1045" x2="-463.5391" y2="82.9824" gradientTransform="matrix(1 0 0 -1 539.04 177.3398)">
			<stop  offset="0" style="stop-color:#F58220"/>
			<stop  offset="0.0247" style="stop-color:#F57F20"/>
			<stop  offset="0.2613" style="stop-color:#F26421"/>
			<stop  offset="0.5017" style="stop-color:#F05022"/>
			<stop  offset="0.746" style="stop-color:#EF4523"/>
			<stop  offset="1" style="stop-color:#EF4123"/>
		</linearGradient>
		<path fill="url(#SVGID_14_)" d="M64.72,90.642c0.179-0.595,0.269-1.657,0.269-3.189V74.196l4.259,2.116
			c1.778-1.799,4.21-2.697,7.298-2.697c2.949,0,5.445,0.99,7.484,2.97c2.038,1.978,3.06,4.362,3.06,7.149
			c0,2.96-0.972,5.385-2.914,7.277c-1.943,1.893-4.433,2.839-7.464,2.839c-3.088,0-5.604-0.946-7.547-2.839
			c0,0.948-0.524,1.893-1.572,2.839l-3.678-1.72C64.271,91.73,64.542,91.234,64.72,90.642z M80.133,88.012
			c1.04-1.159,1.559-2.613,1.559-4.359c0-1.732-0.525-3.154-1.58-4.269c-1.055-1.112-2.486-1.671-4.291-1.671
			c-1.777,0-3.177,0.553-4.199,1.65c-1.018,1.102-1.528,2.57-1.528,4.409c0,1.735,0.53,3.165,1.591,4.29
			c1.063,1.127,2.468,1.689,4.219,1.689C77.684,89.75,79.091,89.17,80.133,88.012z"/>
	</g>
	<g>
		
			<linearGradient id="SVGID_15_" gradientUnits="userSpaceOnUse" x1="-513.1709" y1="75.6982" x2="-513.1709" y2="61.3549" gradientTransform="matrix(1 0 0 -1 539.04 177.3398)">
			<stop  offset="0" style="stop-color:#F58220"/>
			<stop  offset="0.0247" style="stop-color:#F57F20"/>
			<stop  offset="0.2613" style="stop-color:#F26421"/>
			<stop  offset="0.5017" style="stop-color:#F05022"/>
			<stop  offset="0.746" style="stop-color:#EF4523"/>
			<stop  offset="1" style="stop-color:#EF4123"/>
		</linearGradient>
		<path fill="url(#SVGID_15_)" d="M33.137,113.912l-2.352,1.102c-0.655-0.592-0.982-1.183-0.982-1.773
			c-1.198,1.185-2.769,1.773-4.715,1.773c-1.897,0-3.449-0.592-4.665-1.773c-1.215-1.182-1.822-2.699-1.822-4.55
			c0-1.74,0.638-3.229,1.912-4.466c1.274-1.238,2.833-1.855,4.677-1.855c1.638,0,2.989,0.406,4.057,1.224v-6.86l3.256-0.913v15.196
			c0,0.826,0.038,1.435,0.116,1.825C32.696,113.234,32.868,113.589,33.137,113.912z M25.589,112.453
			c1.094,0,1.973-0.354,2.635-1.057c0.664-0.702,0.995-1.598,0.995-2.679c0-1.151-0.317-2.067-0.956-2.759
			c-0.638-0.686-1.511-1.029-2.622-1.029c-1.129,0-2.022,0.348-2.682,1.043c-0.659,0.696-0.988,1.587-0.988,2.668
			c0,1.091,0.324,2,0.975,2.725C23.598,112.091,24.479,112.453,25.589,112.453z"/>
		
			<linearGradient id="SVGID_16_" gradientUnits="userSpaceOnUse" x1="-498.2461" y1="75.6992" x2="-498.2461" y2="61.3546" gradientTransform="matrix(1 0 0 -1 539.04 177.3398)">
			<stop  offset="0" style="stop-color:#F58220"/>
			<stop  offset="0.0247" style="stop-color:#F57F20"/>
			<stop  offset="0.2613" style="stop-color:#F26421"/>
			<stop  offset="0.5017" style="stop-color:#F05022"/>
			<stop  offset="0.746" style="stop-color:#EF4523"/>
			<stop  offset="1" style="stop-color:#EF4123"/>
		</linearGradient>
		<path fill="url(#SVGID_16_)" d="M47.32,108.153l-9.575,1.737c0.207,0.893,0.637,1.559,1.292,2s1.527,0.662,2.622,0.662
			c1.145,0,2.301-0.309,3.462-0.925l1.356,2.284c-1.618,0.734-3.343,1.102-5.169,1.102c-2.119,0-3.822-0.582-5.109-1.75
			c-1.288-1.166-1.931-2.639-1.931-4.423c0-1.901,0.642-3.453,1.926-4.663c1.283-1.209,2.885-1.813,4.807-1.813
			c1.783,0,3.252,0.515,4.413,1.545C46.574,104.939,47.207,106.354,47.32,108.153z M43.884,106.49
			c-0.276-0.549-0.655-0.963-1.137-1.241c-0.483-0.28-1.073-0.421-1.77-0.421c-0.863,0-1.594,0.25-2.196,0.75
			c-0.603,0.502-0.974,1.17-1.111,2.013L43.884,106.49z"/>
		
			<linearGradient id="SVGID_17_" gradientUnits="userSpaceOnUse" x1="-485.7715" y1="75.6973" x2="-485.7715" y2="61.355" gradientTransform="matrix(1 0 0 -1 539.04 177.3398)">
			<stop  offset="0" style="stop-color:#F58220"/>
			<stop  offset="0.0247" style="stop-color:#F57F20"/>
			<stop  offset="0.2613" style="stop-color:#F26421"/>
			<stop  offset="0.5017" style="stop-color:#F05022"/>
			<stop  offset="0.746" style="stop-color:#EF4523"/>
			<stop  offset="1" style="stop-color:#EF4123"/>
		</linearGradient>
		<path fill="url(#SVGID_17_)" d="M56.749,105.718c-1-0.593-2.093-0.89-3.282-0.89c-0.662,0-1.16,0.084-1.491,0.25
			c-0.332,0.166-0.498,0.413-0.498,0.738c0,0.34,0.187,0.603,0.563,0.787c0.376,0.183,1.096,0.425,2.165,0.725
			c1.635,0.459,2.743,1.008,3.32,1.65c0.578,0.641,0.866,1.433,0.866,2.373c0,1.176-0.46,2.08-1.382,2.713s-2.183,0.949-3.785,0.949
			c-1.853,0-3.545-0.47-5.079-1.412l1.356-2.148c1.145,0.732,2.399,1.1,3.76,1.1c0.645,0,1.131-0.088,1.459-0.268
			c0.327-0.179,0.49-0.447,0.49-0.806c0-0.29-0.187-0.534-0.562-0.731c-0.374-0.196-1.053-0.43-2.034-0.707
			c-1.508-0.416-2.598-0.928-3.27-1.534c-0.671-0.609-1.006-1.416-1.006-2.425c0-1.091,0.447-1.982,1.344-2.674
			c0.897-0.69,2.097-1.036,3.605-1.036c1.748,0,3.315,0.391,4.703,1.173L56.749,105.718z"/>
		
			<linearGradient id="SVGID_18_" gradientUnits="userSpaceOnUse" x1="-477.165" y1="75.6982" x2="-477.165" y2="61.355" gradientTransform="matrix(1 0 0 -1 539.04 177.3398)">
			<stop  offset="0" style="stop-color:#F58220"/>
			<stop  offset="0.0247" style="stop-color:#F57F20"/>
			<stop  offset="0.2613" style="stop-color:#F26421"/>
			<stop  offset="0.5017" style="stop-color:#F05022"/>
			<stop  offset="0.746" style="stop-color:#EF4523"/>
			<stop  offset="1" style="stop-color:#EF4123"/>
		</linearGradient>
		<path fill="url(#SVGID_18_)" d="M61.852,96.732c0.576,0,1.067,0.196,1.479,0.587c0.408,0.391,0.612,0.862,0.612,1.411
			c0,0.558-0.205,1.025-0.612,1.404c-0.411,0.379-0.902,0.568-1.479,0.568c-0.571,0-1.053-0.193-1.449-0.574
			c-0.396-0.385-0.595-0.85-0.595-1.4s0.201-1.021,0.602-1.411C60.81,96.928,61.291,96.732,61.852,96.732z M63.492,114.677h-3.256
			v-11.382l3.256-0.926V114.677z"/>
		
			<linearGradient id="SVGID_19_" gradientUnits="userSpaceOnUse" x1="-466.7974" y1="75.6982" x2="-466.7974" y2="61.3566" gradientTransform="matrix(1 0 0 -1 539.04 177.3398)">
			<stop  offset="0" style="stop-color:#F58220"/>
			<stop  offset="0.0247" style="stop-color:#F57F20"/>
			<stop  offset="0.2613" style="stop-color:#F26421"/>
			<stop  offset="0.5017" style="stop-color:#F05022"/>
			<stop  offset="0.746" style="stop-color:#EF4523"/>
			<stop  offset="1" style="stop-color:#EF4123"/>
		</linearGradient>
		<path fill="url(#SVGID_19_)" d="M79.148,112.653c0,2.45-0.578,4.286-1.73,5.509c-1.154,1.226-2.885,1.838-5.195,1.838
			c-2.352,0-4.486-0.529-6.406-1.588l1.433-2.299c1.491,0.883,3.089,1.324,4.793,1.324c1.235,0,2.195-0.305,2.884-0.912
			s1.035-1.438,1.035-2.488v-0.287c-1.123,0.842-2.5,1.264-4.136,1.264c-1.897,0-3.449-0.592-4.665-1.775
			c-1.215-1.182-1.822-2.699-1.822-4.548c0-1.733,0.643-3.22,1.926-4.462c1.284-1.241,2.838-1.863,4.664-1.863
			c1.93,0,3.449,0.563,4.56,1.687l2.661-1.325V112.653z M72.326,112.453c1.104,0,1.982-0.354,2.644-1.057
			c0.657-0.702,0.987-1.598,0.987-2.679c0-1.151-0.318-2.067-0.957-2.759c-0.637-0.686-1.513-1.029-2.621-1.029
			c-1.139,0-2.034,0.346-2.69,1.036c-0.653,0.692-0.981,1.583-0.981,2.675c0,1.091,0.327,2,0.979,2.725
			C70.336,112.091,71.215,112.453,72.326,112.453z"/>
		
			<linearGradient id="SVGID_20_" gradientUnits="userSpaceOnUse" x1="-451.1978" y1="75.7002" x2="-451.1978" y2="61.355" gradientTransform="matrix(1 0 0 -1 539.04 177.3398)">
			<stop  offset="0" style="stop-color:#F58220"/>
			<stop  offset="0.0247" style="stop-color:#F57F20"/>
			<stop  offset="0.2613" style="stop-color:#F26421"/>
			<stop  offset="0.5017" style="stop-color:#F05022"/>
			<stop  offset="0.746" style="stop-color:#EF4523"/>
			<stop  offset="1" style="stop-color:#EF4123"/>
		</linearGradient>
		<path fill="url(#SVGID_20_)" d="M93.914,114.677H90.66v-7.474c0-0.699-0.189-1.234-0.57-1.6c-0.379-0.365-0.912-0.55-1.603-0.55
			c-1.015,0-1.848,0.345-2.493,1.037c-0.646,0.69-0.969,1.573-0.969,2.648v5.937H81.77v-11.435l3.074-0.876v2
			c0.621-0.665,1.308-1.165,2.061-1.498c0.754-0.332,1.574-0.502,2.463-0.502c1.472,0,2.598,0.404,3.379,1.207
			c0.779,0.803,1.17,1.965,1.17,3.48v7.624H93.914z"/>
	</g>
</g>
</svg>
